<?xml version="1.0" encoding="utf-8"?>
<!-- Generator: Adobe Illustrator 22.0.1, SVG Export Plug-In . SVG Version: 6.00 Build 0)  -->
<svg version="1.1" id="Layer_1" xmlns="http://www.w3.org/2000/svg" xmlns:xlink="http://www.w3.org/1999/xlink" x="0px" y="0px"
	 viewBox="0 0 1200 1200" style="enable-background:new 0 0 1200 1200;" xml:space="preserve">
<style type="text/css">
	.st0{fill:#FFF033;}
	.st1{fill:none;stroke:#231F20;stroke-width:50;stroke-miterlimit:10;}
	.st2{fill:#231F20;stroke:#231F20;stroke-width:10;stroke-miterlimit:10;}
	.st3{fill:#231F20;stroke:#231F20;stroke-width:15;stroke-miterlimit:10;}
	.st4{fill:none;stroke:#231F20;stroke-width:50;stroke-linecap:round;stroke-miterlimit:10;}
</style>
<g>
	<g>
		<path class="st0" d="M1060,599.8c0,111-51.4,208.3-134.5,292.2c-83.1,82-197.9,150.7-324.7,160.9
			c-168.3,15.5-295.3-54.1-375.3-196.6C185,785,141.6,692.8,141.6,599.8c0-160.6,60.4-270,169.1-353.9
			c77.6-60,184.5-110.8,290.1-99.1c126.8,12.2,201.4,12.9,284.5,93C968.4,318.3,1060,486.3,1060,599.8z"/>
		<path class="st1" d="M1060,599.8c0,111-51.4,208.3-134.5,292.2c-83.1,82-197.9,150.7-324.7,160.9
			c-168.3,15.5-295.3-54.1-375.3-196.6C185,785,141.6,692.8,141.6,599.8c0-160.6,60.4-270,169.1-353.9
			c77.6-60,184.5-110.8,290.1-99.1c126.8,12.2,201.4,12.9,284.5,93C968.4,318.3,1060,486.3,1060,599.8z"/>
	</g>
	<path class="st2" d="M338.5,547.4c-3.6,10.1-18.6,6.7-17.5-4c5.4-53.1,20.2-124.3,60.3-166.2c53.2-55.7,56.4,77.1,54.9,143.3
		c-0.1,3.4,4.8,3.9,5.5,0.6l31.2-155.6c3.3-16.3,25-19.9,33.4-5.6c18.9,32.2,42.1,82.9,44.9,141.1c4.8,100-46.8-36.5-48.4-46
		c-0.9-5.4-12,14.7-24.4,70.3c-2.9,12.9-10.4,43.2-18.1,55.3c-13,20.6-44.2,16.1-50.8-7.1c-0.1-0.3-0.1-0.6-0.2-0.9l-1.1-17.3
		L402,430.7c-0.2-4-5.4-5.4-7.5-2.1C383.5,445.5,361,484,338.5,547.4z"/>
	<path class="st2" d="M623.7,397.4c-3.6-10.1-18.6-6.7-17.5,4c5.4,53.1,20.2,124.3,60.3,166.2c53.2,55.7,56.4-77.1,54.9-143.3
		c-0.1-3.4,4.8-3.9,5.5-0.6l31.2,155.6c3.3,16.3,25,19.9,33.4,5.6c18.9-32.2,42.1-82.9,44.9-141.1c4.8-100-46.8,36.5-48.4,46
		c-0.9,5.4-12-14.7-24.4-70.3c-2.9-12.9-10.4-43.2-18.1-55.3c-13-20.6-44.2-16.1-50.8,7.1c-0.1,0.3-0.1,0.6-0.2,0.9l-1.1,17.3
		L687.2,514c-0.2,4-5.4,5.4-7.5,2.1C668.7,499.3,646.2,460.7,623.7,397.4z"/>
	<path class="st3" d="M864.4,695.5l-114.8,30.3c-7.1,1.9-11.1,10.3-8.9,18.7v0c2.2,8.4,19.4,14.8,26.5,12.9l58.2-18.7
		c7.1-1.9,58.2-22.9,56-31.3v0C879.2,698.9,871.6,693.6,864.4,695.5z"/>
	<path class="st2" d="M593,657.7"/>
	<path class="st4" d="M867,716c-38.7,103.2-134.6,163.8-239.2,169c-54,2.7-114-3.7-162.3-38c-98.5-69.9-126.3-106.9-136.7-134.7"/>
</g>
</svg>
