<svg width="969" height="961" viewBox="0 0 969 961" fill="none" xmlns="http://www.w3.org/2000/svg">
<path d="M943.4 480.689C943.4 591.689 892 688.989 808.9 772.889C725.8 854.889 611 923.589 484.2 933.789C315.9 949.289 188.9 879.689 108.9 737.189C68.4 665.889 25 573.689 25 480.689C25 320.089 85.4 210.689 194.1 126.789C271.7 66.7892 378.6 15.9892 484.2 27.6892C611 39.8892 685.6 40.5892 768.7 120.689C851.8 199.189 943.4 367.189 943.4 480.689Z" fill="#FFF033"/>
<path d="M943.4 480.689C943.4 591.689 892 688.989 808.9 772.889C725.8 854.889 611 923.589 484.2 933.789C315.9 949.289 188.9 879.689 108.9 737.189C68.4 665.889 25 573.689 25 480.689C25 320.089 85.4 210.689 194.1 126.789C271.7 66.7892 378.6 15.9892 484.2 27.6892C611 39.8892 685.6 40.5892 768.7 120.689C851.8 199.189 943.4 367.189 943.4 480.689Z" stroke="white" stroke-width="50" stroke-miterlimit="10"/>
<path d="M221.9 428.289C218.3 438.389 203.3 434.989 204.4 424.289C209.8 371.189 224.6 299.989 264.7 258.089C317.9 202.389 321.1 335.189 319.6 401.389C319.5 404.789 324.4 405.289 325.1 401.989L356.3 246.389C359.6 230.089 381.3 226.489 389.7 240.789C408.6 272.989 431.8 323.689 434.6 381.889C439.4 481.889 387.8 345.389 386.2 335.889C385.3 330.489 374.2 350.589 361.8 406.189C358.9 419.089 351.4 449.389 343.7 461.489C330.7 482.089 299.5 477.589 292.9 454.389C292.8 454.089 292.8 453.789 292.7 453.489L291.6 436.189L285.4 311.589C285.2 307.589 280 306.189 277.9 309.489C266.9 326.389 244.4 364.889 221.9 428.289Z" fill="#231F20" stroke="#231F20" stroke-width="10" stroke-miterlimit="10"/>
<path d="M507.1 278.289C503.5 268.189 488.5 271.589 489.6 282.289C495 335.389 509.8 406.589 549.9 448.489C603.1 504.189 606.3 371.389 604.8 305.189C604.7 301.789 609.6 301.289 610.3 304.589L641.5 460.189C644.8 476.489 666.5 480.089 674.9 465.789C693.8 433.589 717 382.889 719.8 324.689C724.6 224.689 673 361.189 671.4 370.689C670.5 376.089 659.4 355.989 647 300.389C644.1 287.489 636.6 257.189 628.9 245.089C615.9 224.489 584.7 228.989 578.1 252.189C578 252.489 578 252.789 577.9 253.089L576.8 270.389L570.6 394.889C570.4 398.889 565.2 400.289 563.1 396.989C552.1 380.189 529.6 341.589 507.1 278.289Z" fill="#231F20" stroke="#231F20" stroke-width="10" stroke-miterlimit="10"/>
<path d="M747.8 576.389L633 606.689C625.9 608.589 621.9 616.989 624.1 625.389C626.3 633.789 643.5 640.189 650.6 638.289L708.8 619.589C715.9 617.689 767 596.689 764.8 588.289C762.6 579.789 755 574.489 747.8 576.389Z" fill="#231F20" stroke="#231F20" stroke-width="15" stroke-miterlimit="10"/>
<path d="M750.4 596.889C711.7 700.089 615.8 760.689 511.2 765.889C457.2 768.589 397.2 762.189 348.9 727.889C250.4 657.989 222.6 620.989 212.2 593.189" stroke="#231F20" stroke-width="50" stroke-miterlimit="10" stroke-linecap="round"/>
</svg>
